<?xml version="1.0" encoding="UTF-8" standalone="no"?>
<!-- Created with Inkscape (http://www.inkscape.org/) -->

<svg
   xmlns:dc="http://purl.org/dc/elements/1.1/"
   xmlns:cc="http://creativecommons.org/ns#"
   xmlns:rdf="http://www.w3.org/1999/02/22-rdf-syntax-ns#"
   xmlns:svg="http://www.w3.org/2000/svg"
   xmlns="http://www.w3.org/2000/svg"
   xmlns:sodipodi="http://sodipodi.sourceforge.net/DTD/sodipodi-0.dtd"
   xmlns:inkscape="http://www.inkscape.org/namespaces/inkscape"
   version="1.1"
   id="svg2"
   width="324.14944"
   height="306.33905"
   viewBox="0 0 324.14944 306.33905"
   sodipodi:docname="135px-Kepler_Hexahedron_Earth.jpg.svg"
   inkscape:version="0.92.5 (2060ec1f9f, 2020-04-08)">
  <metadata
     id="metadata8">
    <rdf:RDF>
      <cc:Work
         rdf:about="">
        <dc:format>image/svg+xml</dc:format>
        <dc:type
           rdf:resource="http://purl.org/dc/dcmitype/StillImage" />
        <dc:title></dc:title>
      </cc:Work>
    </rdf:RDF>
  </metadata>
  <defs
     id="defs6" />
  <sodipodi:namedview
     pagecolor="#ffffff"
     bordercolor="#666666"
     borderopacity="1"
     objecttolerance="10"
     gridtolerance="10"
     guidetolerance="10"
     inkscape:pageopacity="0"
     inkscape:pageshadow="2"
     inkscape:window-width="1920"
     inkscape:window-height="1015"
     id="namedview4"
     showgrid="false"
     fit-margin-top="0"
     fit-margin-left="0"
     fit-margin-right="0"
     fit-margin-bottom="0"
     inkscape:zoom="1.1751916"
     inkscape:cx="285.45238"
     inkscape:cy="204.9283"
     inkscape:window-x="0"
     inkscape:window-y="40"
     inkscape:window-maximized="1"
     inkscape:current-layer="svg2" />
  <path
     style="fill:#000000;stroke-width:2.41603994"
     d="M 64.365488,262.72514 C 35.89195,206.31669 28.210441,192.17744 24.859321,190.00671 c -1.970836,-1.27663 -1.900336,-1.78542 0.251147,-1.81203 2.323844,-0.0288 2.913189,-17.83437 2.640973,-79.78993 -0.1928,-43.864105 0.363784,-80.46711 1.236675,-81.340003 0.872891,-0.872894 1.587072,35.106667 1.587072,79.954583 v 81.54166 L 58.658294,243.32424 86.7414,298.0875 85.244397,226.81433 C 84.421035,187.61408 83.743022,143.30994 83.737731,128.3607 83.728031,104.10306 83.273416,101.17627 79.499997,101.14325 76.3151,101.11535 76.054458,100.61002 78.443511,99.094982 80.822392,97.586402 75.792632,88.386568 58.319928,62.287367 45.507571,43.149383 33.287555,26.143245 31.164315,24.495945 c -2.12324,-1.647297 -3.396203,-3.415775 -2.828796,-3.929952 0.567407,-0.514177 20.057964,-1.607899 43.312348,-2.430492 23.254384,-0.822594 61.035203,-2.199184 83.957383,-3.059091 26.72957,-1.002734 41.67669,-0.712447 41.67669,0.809405 0,2.062085 -128.971204,6.969444 -154.332448,5.872356 -8.020672,-0.346962 -8.095111,-0.258531 -4.297096,5.105933 2.125705,3.002454 13.338038,19.864647 24.916282,37.471538 l 21.051342,32.01253 h 15.066084 c 8.286336,0 31.189016,-1.03852 50.894866,-2.30783 19.70583,-1.2693 58.60603,-3.027495 86.4449,-3.907098 43.74383,-1.382139 50.00038,-2.049505 46.08113,-4.915332 -2.49425,-1.82383 -3.96492,-3.886123 -3.26816,-4.582873 0.69674,-0.696749 4.07961,0.94573 7.51749,3.649955 5.8322,4.587604 6.25575,6.288247 6.32669,25.402256 l 0.0761,20.48548 -6.56186,-0.32902 c -5.51824,-0.2767 -5.71602,-0.4931 -1.24359,-1.36062 4.42474,-0.85828 4.96789,-1.95317 3.23281,-6.51677 -1.14699,-3.01684 -1.33233,-6.70376 -0.41182,-8.19316 0.92049,-1.4894 1.24801,-7.1712 0.72779,-12.62621 l -0.94586,-9.918209 -24.49695,1.336887 c -13.47331,0.735291 -44.88227,2.005034 -69.79768,2.821664 -24.91541,0.81662 -45.29852,2.18231 -45.29582,3.03485 0.002,0.85255 -11.90325,1.21143 -26.45769,0.79752 -25.215503,-0.7171 -36.364344,1.346798 -36.364344,6.731828 0,1.20185 4.077068,2.61166 9.06015,3.13291 l 9.060144,0.94772 -9.664154,0.79995 c -9.312481,0.77084 -9.180589,0.85921 3.62406,2.42838 l 13.288214,1.62843 -12.684206,0.3938 c -10.813202,0.33572 -12.684208,1.08608 -12.684208,5.08697 0,3.7656 2.029401,4.87595 10.26817,5.618 l 10.268164,0.92484 -10.872174,0.80167 -10.87218,0.80166 12.0802,1.65691 12.080194,1.6569 -11.476184,0.37957 c -9.596583,0.3174 -11.47619,1.14346 -11.47619,5.04361 0,2.91586 2.037568,5.05649 5.43609,5.71108 5.164865,0.9948 5.134737,1.07192 -0.60401,1.54587 -5.591852,0.46181 -5.681511,0.65293 -1.20802,2.57525 4.13196,1.77556 4.219469,2.10102 0.60401,2.24623 -6.72698,0.27017 -4.896298,4.5797 2.41604,5.68743 l 6.644108,1.0065 -6.644108,0.362 c -3.65426,0.1991 -6.64411,1.59147 -6.64411,3.09416 0,1.80525 3.073735,2.23831 9.06015,1.27649 6.217314,-0.99892 7.923014,-0.73067 5.436084,0.85491 -1.993226,1.27081 -6.342099,2.50998 -9.664154,2.75372 -3.322055,0.24373 0.483208,1.16482 8.456138,2.04688 l 14.496236,1.60373 -14.150716,0.40615 c -11.817456,0.33919 -13.9089,1.0363 -12.68421,4.22782 0.806595,2.10191 1.466512,6.92876 1.466512,10.72633 0,6.19956 0.925247,7.00146 9.06015,7.8524 l 9.060144,0.94772 -9.060144,0.40614 c -7.215866,0.32347 -9.06015,1.36007 -9.06015,5.09238 0,3.63603 2.030416,4.89862 9.06015,5.63396 l 9.060144,0.94772 -9.664154,0.83278 c -7.742393,0.66718 -6.30108,1.14355 7.248114,2.39554 l 16.91228,1.56276 -16.30827,0.42664 c -14.343057,0.37523 -16.308264,0.98758 -16.308264,5.08157 0,2.56021 1.902632,5.15214 4.22807,5.75984 4.026741,1.05229 4.026741,1.11825 0,1.38516 -8.463122,0.56101 -3.95554,4.85908 6.040098,5.75937 l 10.268166,0.92484 -10.872174,0.83911 c -10.314993,0.79609 -10.067349,0.92018 4.832074,2.42112 l 15.70426,1.58202 -15.20617,0.41701 c -13.01636,0.35694 -15.103915,1.02587 -14.496233,4.64508 0.507948,3.02517 3.803088,4.6356 11.582103,5.66054 l 10.87218,1.43244 -11.47619,0.37959 c -6.311898,0.20874 -11.476184,1.46677 -11.476184,2.7956 0,1.32882 1.902632,2.49246 4.22807,2.58586 3.615459,0.1452 3.52795,0.47067 -0.60401,2.24622 -3.766075,1.61833 -2.433556,2.19393 6.0401,2.6091 l 10.872174,0.53269 -9.664156,1.44914 c -11.725016,1.7582 -13.197423,7.96902 -2.416038,10.19127 l 7.248114,1.49398 -7.248114,0.31805 c -7.12367,0.31259 -7.24812,0.54308 -7.24812,13.42506 v 13.10702 l 7.24812,-1.05782 c 7.074114,-1.03242 7.045094,-0.97352 -1.20802,2.45301 -7.743142,3.21481 -3.872646,3.50575 45.904754,3.45059 l 54.3609,-0.0602 -8.14119,-6.85689 c -4.47764,-3.7713 -9.57752,-6.30572 -11.33306,-5.63206 -2.25426,0.86504 -2.98548,-0.71116 -2.48922,-5.36571 0.55634,-5.21809 3.92273,-8.52937 16.16514,-15.90054 8.50437,-5.12048 16.67488,-9.31325 18.15671,-9.31726 4.305,-0.0121 15.60859,9.82299 14.09849,12.26635 -0.7555,1.22242 0.44965,2.22259 2.67808,2.22259 2.22844,0 7.76653,3.26166 12.30685,7.24812 4.54034,3.98647 6.72471,7.24812 4.85414,7.24812 -4.85313,0 -24.90534,9.15503 -28.98258,13.23229 -2.72311,2.72312 -16.26142,3.69125 -65.22152,4.66395 l -61.785099,1.22742 z m 155.868832,30.54761 c 17.8497,-8.876 16.79957,-8.18352 15.05514,-9.92792 -0.79993,-0.79995 -3.94109,0.28727 -6.98035,2.41604 -3.03923,2.12877 -7.18661,3.7818 -9.2164,3.67342 -2.02976,-0.10848 -0.15704,-1.74235 4.16166,-3.631 8.16771,-3.57192 9.82637,-6.74681 5.06279,-9.69085 -1.66483,-1.02892 -2.13595,-0.66668 -1.16862,0.89847 0.89142,1.44233 0.51578,3.30532 -0.83472,4.13996 -1.35049,0.83465 -2.45544,0.30201 -2.45544,-1.18366 0,-1.48568 -1.25521,-1.92547 -2.78934,-0.97732 -1.66483,1.02892 -2.13595,0.66668 -1.16862,-0.89847 0.89142,-1.44233 0.51578,-3.30532 -0.83472,-4.13996 -1.35049,-0.83465 -2.45544,-2.60476 -2.45544,-3.93358 0,-1.32882 1.08722,-1.74411 2.41604,-0.92285 1.32882,0.82126 2.41604,0.91333 2.41604,0.20463 0,-0.70872 -3.38132,-3.0371 -7.51403,-5.17424 -4.13273,-2.1371 -6.78661,-2.70862 -5.89753,-1.27006 0.8891,1.43858 0.73696,2.70621 -0.33808,2.81693 -1.07504,0.11066 -4.17112,0.45574 -6.8802,0.76666 -7.66457,0.87966 -24.03271,11.86573 -24.37062,16.35724 -0.16695,2.22037 0.95433,3.55424 2.49198,2.9642 1.53764,-0.59003 6.36128,2.60596 10.71924,7.10223 4.35798,4.49628 9.75988,8.04986 12.00429,7.89683 2.24438,-0.15293 10.604,-3.52203 18.57693,-7.4867 z m -15.70426,3.6272 c 0,-1.34008 1.29502,-2.43651 2.87782,-2.43651 1.58279,0 0.76738,-1.71959 -1.81203,-3.8213 -4.00442,-3.26279 -4.0719,-3.62698 -0.46178,-2.49186 2.32544,0.73119 4.22807,0.27633 4.22807,-1.01077 0,-1.28712 -1.0145,-2.34023 -2.25446,-2.34023 -1.23993,0 -2.16047,-3.30536 -2.04559,-7.34524 l 0.20875,-7.34524 6.87767,6.58924 c 3.78274,3.62408 6.87769,7.11064 6.87769,7.74792 0,0.63726 -0.7079,0.45076 -1.57313,-0.41447 -0.86523,-0.86523 -2.94699,0.3057 -4.62614,2.60208 -1.67914,2.29637 -2.10181,4.76307 -0.93928,5.48156 1.16255,0.71848 -0.0169,2.63722 -2.62198,4.26385 -2.83917,1.77313 -4.73561,1.98178 -4.73561,0.52097 z m 8.45614,-16.93274 c -0.82126,-1.32883 -2.5804,-2.41604 -3.90923,-2.41604 -1.32882,0 -1.74411,1.08721 -0.92285,2.41604 0.82126,1.32882 2.5804,2.41603 3.90922,2.41603 1.32883,0 1.74412,-1.08721 0.92286,-2.41603 z m -14.22601,13.12119 c -0.79427,-2.06982 -2.53901,-3.08661 -3.87723,-2.25957 -1.3382,0.82706 -2.4331,-0.2554 -2.4331,-2.40549 0,-2.15008 -1.08722,-3.2373 -2.41604,-2.41604 -1.32882,0.82127 -2.41604,-0.20173 -2.41604,-2.27344 0,-2.07166 -1.3202,-3.76665 -2.93377,-3.76665 -1.78867,0 -1.26379,-1.65026 1.34481,-4.22807 4.07485,-4.02675 4.39282,-4.02675 6.67789,0 2.93976,5.18049 6.99127,5.5305 6.99127,0.60401 0,-1.99324 -1.15139,-3.62406 -2.55864,-3.62406 -1.40724,0 -1.88668,-1.08722 -1.06542,-2.41604 0.82126,-1.32883 2.5804,-2.41604 3.90922,-2.41604 1.32883,0 1.79056,1.0121 1.02605,2.24909 -0.76453,1.23701 -0.23218,2.96462 1.18275,3.83916 1.71427,1.05948 1.77322,2.55344 0.17661,4.47726 -2.58284,3.11212 -2.39966,8.25435 0.45682,12.82393 0.98094,1.56921 0.79249,3.46559 -0.41877,4.2142 -1.21126,0.74858 -2.85213,-0.3324 -3.64641,-2.40225 z m -3.88535,-11.90366 c -3.11597,-3.31681 -6.20913,-5.48685 -6.87368,-4.82231 -1.48137,1.48139 7.20724,10.51006 10.30593,10.70931 1.22826,0.079 -0.31626,-2.57018 -3.43225,-5.887 z m 15.79851,-10.71475 c -0.76453,-1.23701 -0.28507,-2.93201 1.06542,-3.76665 1.3505,-0.83465 2.45545,0.17734 2.45545,2.24909 0,4.24385 -1.44975,4.86871 -3.52087,1.51756 z m 8.35295,31.31572 c 1.99323,-1.32889 12.86541,-2.50925 24.1604,-2.623 13.74823,-0.13843 18.93914,-0.89316 15.70426,-2.28323 -4.65871,-2.0019 -4.64213,-2.0825 0.46141,-2.24621 2.91143,-0.0935 5.92017,0.84414 6.6861,2.08342 1.82126,2.94687 15.80487,2.53387 15.80487,-0.4668 0,-1.27065 -2.98985,-1.69195 -6.64411,-0.93622 -3.65426,0.75574 -5.27833,0.78072 -3.60901,0.0556 1.66931,-0.72517 2.34856,-2.42935 1.50947,-3.78702 -0.95625,-1.54726 0.34798,-1.87388 3.49465,-0.87516 4.0842,1.29628 4.84786,0.69804 4.09553,-3.20843 -2.02967,-10.53925 -5.74776,-14.23246 -13.88223,-13.7894 -4.35416,0.23725 -9.35336,-0.97584 -11.10931,-2.69553 -3.5977,-3.52341 -8.67552,-4.27678 -6.64128,-0.98533 2.1834,3.53283 -7.89379,4.86691 -10.75167,1.42336 -2.07707,-2.50271 -1.57879,-2.90628 2.3272,-1.88483 2.82481,0.73871 4.97016,0.1353 4.97016,-1.39811 0,-1.48381 -1.26842,-2.69782 -2.81872,-2.69782 -1.55028,0 -2.24467,-0.57403 -1.54308,-1.27563 0.70157,-0.70159 4.14443,-0.18482 7.65078,1.14823 6.94935,2.64213 8.09528,1.50234 3.30526,-3.28765 -5.54235,-5.54237 -13.84236,-9.16298 -13.84236,-6.03829 0,1.86025 -1.01138,2.02239 -3.02005,0.48417 -1.66103,-1.27197 -9.54336,-3.73894 -17.51629,-5.48211 -7.97293,-1.7432 -13.20202,-3.62266 -11.62021,-4.17659 1.5818,-0.5539 7.01789,0.14303 12.0802,1.54878 12.18687,3.38415 15.91527,3.26625 13.82438,-0.4372 -1.36402,-2.41604 -1.05431,-2.41604 1.54866,0 4.83037,4.48351 9.53539,3.65977 9.53539,-1.66944 0,-5.61971 -3.9179,-8.66467 -5.643,-4.38572 -0.70082,1.7383 -1.30515,1.11812 -1.41438,-1.45146 -0.12515,-2.94471 1.00104,-4.02923 3.27722,-3.15578 1.90739,0.73194 3.90364,0.57647 4.43611,-0.34552 0.53247,-0.92196 0.67603,-0.41942 0.31902,1.11675 -0.357,1.53619 1.45201,4.69453 4.02004,7.01857 2.56804,2.32403 4.66915,6.83923 4.66915,10.03374 0,3.53114 1.0194,5.17822 2.60016,4.20125 2.24158,-1.38538 10.64684,4.25341 26.87255,18.02784 2.25738,1.91633 3.40771,4.64933 2.55627,6.07332 -0.86216,1.44199 0.0273,1.31568 2.00758,-0.28509 2.84148,-2.29691 3.50933,-9.57576 3.3251,-36.2406 -0.41563,-60.16244 -0.16815,-58.26956 -7.76517,-59.4204 -6.07473,-0.92024 -5.95897,-1.03752 1.35061,-1.36849 4.99272,-0.22607 7.39518,-1.33206 6.39808,-2.9454 -0.87813,-1.42086 -6.34302,-2.29151 -12.14417,-1.93477 -5.80118,0.35675 -11.30777,-0.11154 -12.23688,-1.04066 -0.92909,-0.92911 3.92802,-1.68929 10.79358,-1.68929 10.69127,0 12.48289,-0.66463 12.48289,-4.63075 0,-2.54691 -1.35903,-5.17912 -3.02005,-5.84936 -2.41604,-0.97489 -2.41604,-1.25676 0,-1.40935 4.58711,-0.28972 3.60746,-6.93105 -1.20802,-8.18946 -4.02675,-1.0523 -4.02675,-1.11826 0,-1.38518 2.32543,-0.15414 4.22807,-1.91109 4.22807,-3.90432 0,-1.99324 0.9738,-3.62406 2.16402,-3.62406 1.19021,0 1.95322,6.2515 1.69555,13.89223 -0.25767,7.64072 0.37243,16.33847 1.40024,19.32832 1.14745,3.33796 0.90425,5.43609 -0.63013,5.43609 -1.37434,0 -1.95242,0.88409 -1.2846,1.96464 0.93435,1.5118 2.34991,97.42073 1.63355,110.67694 -0.10123,1.87274 -12.29394,2.81867 -39.4072,3.05723 -26.87487,0.23653 -38.11736,-0.41681 -35.63659,-2.07079 z m 68.85714,-7.32227 c -0.82126,-1.32882 -0.27766,-2.41604 1.20802,-2.41604 1.48567,0 2.02928,-1.08721 1.20802,-2.41604 -0.82126,-1.32882 -2.58041,-2.41604 -3.90923,-2.41604 -1.32882,0 -1.74411,1.08722 -0.92285,2.41604 0.82126,1.32883 0.27765,2.41604 -1.20802,2.41604 -1.48568,0 -2.02928,1.08722 -1.20802,2.41604 0.82126,1.32883 2.5804,2.41604 3.90922,2.41604 1.32882,0 1.74412,-1.08721 0.92286,-2.41604 z m -25.36842,-28.99247 c -2.65765,-2.65765 -5.2739,-4.83208 -5.81391,-4.83208 -0.54001,0 -0.41322,2.17443 0.28178,4.83208 0.69937,2.67436 3.29553,4.83208 5.81391,4.83208 4.36245,0 4.3508,-0.19957 -0.28178,-4.83208 z M 249.4684,249.5251 c -0.85984,-2.24073 -2.10698,-3.53046 -2.77139,-2.86605 -0.66441,0.66441 -0.50449,3.04136 0.35535,5.28209 0.85985,2.24073 2.10698,3.53046 2.77139,2.86605 0.66441,-0.66441 0.5045,-3.04136 -0.35535,-5.28209 z m -108.35939,48.17033 c 1.66103,-0.67023 4.37907,-0.67023 6.0401,0 1.66103,0.67023 0.30201,1.21863 -3.02005,1.21863 -3.32205,0 -4.68108,-0.5484 -3.02005,-1.21863 z m 41.67669,-0.95854 c 0,-1.40725 -1.08722,-1.88669 -2.41604,-1.06543 -1.32882,0.82126 -2.41604,-0.3703 -2.41604,-2.6479 0,-3.83348 0.35895,-3.81626 4.83208,0.23194 5.44585,4.92843 5.89052,6.0401 2.41604,6.0401 -1.32882,0 -2.41604,-1.15139 -2.41604,-2.55864 z m -64.5995,-1.5792 c 2.34173,-0.58296 3.56953,-2.17335 2.72851,-3.53418 -1.02568,-1.65958 -0.0411,-1.70688 2.99045,-0.14351 2.48582,1.28185 6.15047,1.78509 8.1437,1.11831 1.99323,-0.66678 2.7475,-0.27751 1.67613,0.86504 -1.07135,1.14254 -5.96383,2.22969 -10.87218,2.41589 -4.90833,0.18628 -7.0083,-0.13844 -4.66661,-0.72143 z m -23.042345,-4.69025 c 1.627807,-0.65917 3.680689,-1.02409 4.561969,-0.81092 0.881266,0.21309 2.370586,-0.85557 3.309606,-2.37495 1.10014,-1.78004 4.20357,-2.10587 8.72628,-0.91616 l 7.01893,1.84634 -7.24812,1.63198 c -8.47438,1.90807 -20.689825,2.37352 -16.368665,0.62371 z m 162.086075,-0.0706 c 1.74407,-0.69792 3.8279,-0.61211 4.63075,0.19062 0.80283,0.80285 -0.62416,1.37386 -3.17105,1.26896 -2.81457,-0.11597 -3.38705,-0.68843 -1.4597,-1.45968 z m 1.66103,-6.88052 c -9.45104,-7.74691 -6.90654,-7.69432 3.62406,0.0749 4.50279,3.32206 7.16024,6.00101 5.90547,5.95322 -1.25477,-0.0478 -5.54307,-2.76044 -9.52953,-6.02811 z m 9.66416,-1.64791 c -2.65765,-2.78282 -3.56591,-4.34225 -2.01839,-3.46542 1.54752,0.87685 3.30133,0.22855 3.89732,-1.44083 1.41258,-3.95656 4.05104,-1.42358 5.30622,5.09412 1.2352,6.41391 -0.93452,6.35718 -7.18515,-0.18797 z m -166.70676,-0.42066 c 3.98647,-1.88337 6.94991,-4.34602 6.58543,-5.47252 -0.36449,-1.1265 4.79774,-4.76622 11.47164,-8.08827 11.60253,-5.77538 12.07486,-6.39468 10.77677,-14.13004 -0.91688,-5.46393 -0.51048,-7.56644 1.25197,-6.47719 1.43525,0.88705 1.99174,2.61244 1.23663,3.83421 -0.75509,1.22179 0.17564,1.62722 2.0682,0.90096 2.28574,-0.87714 3.83776,0.75453 4.62251,4.85975 0.86714,4.53616 0.14569,6.20922 -2.71159,6.28919 -2.14117,0.0599 -7.15469,1.67719 -11.14116,3.59388 l -7.24812,3.4849 8.45614,-1.09005 8.45614,-1.09004 -8.45614,2.55571 c -4.65088,1.40565 -10.63057,3.54631 -13.28822,4.75704 -4.5021,2.05097 -4.47472,2.11123 0.40068,0.88226 2.87803,-0.72546 5.84812,-0.32338 6.60021,0.89353 0.75209,1.21691 -2.86663,2.88961 -8.04162,3.71712 -5.17497,0.8275 -11.40671,2.06693 -13.848306,2.75424 -2.4416,0.68732 -1.177624,-0.29128 2.808836,-2.17468 z m 18.95717,0.61162 c 3.19705,-1.85832 5.21635,-1.83749 7.12732,0.0734 1.9445,1.9445 0.73677,2.64651 -4.46093,2.59292 -6.24815,-0.0645 -6.57707,-0.39331 -2.66639,-2.66639 z m 27.7026,1.08944 c 1.74409,-0.69792 3.82793,-0.6121 4.63075,0.19063 0.80283,0.80285 -0.62416,1.37386 -3.17105,1.26895 -2.81456,-0.11597 -3.38704,-0.68842 -1.4597,-1.45967 z m -15.80928,-4.85595 c 2.35073,-0.61256 5.61239,-0.57228 7.24812,0.0894 1.63573,0.66182 -0.28758,1.16301 -4.27405,1.11377 -3.98647,-0.0493 -5.32481,-0.59072 -2.97407,-1.20329 z m 20.64136,-2.39217 c 1.74409,-0.69792 3.82793,-0.6121 4.63075,0.19063 0.80283,0.80285 -0.62416,1.37386 -3.17105,1.26895 -2.81456,-0.11597 -3.38704,-0.68842 -1.4597,-1.45967 z m -1.35902,-12.09522 c 2.32544,-0.60769 6.1307,-0.60769 8.45614,0 2.32544,0.6077 0.42281,1.10492 -4.22807,1.10492 -4.65088,0 -6.55351,-0.49722 -4.22807,-1.10492 z m -46.96178,-2.40102 c 1.7441,-0.69792 3.82793,-0.6121 4.63076,0.19063 0.80282,0.80285 -0.62416,1.37386 -3.17106,1.26895 -2.81456,-0.11597 -3.38704,-0.68842 -1.4597,-1.45967 z m 123.67105,-1.19436 c -3.71186,-1.55999 -4.84527,-2.98575 -2.94035,-3.69882 1.70486,-0.63817 4.96651,-0.34155 7.24812,0.65917 2.28161,1.00072 5.0446,1.61996 6.13998,1.37606 1.09539,-0.24388 1.30302,0.67074 0.46142,2.03247 -1.836,2.97071 -3.06154,2.92928 -10.90917,-0.36888 z m -104.85613,-3.43692 c -0.85985,-2.24073 -1.01977,-4.61768 -0.35536,-5.28209 0.66441,-0.66441 1.91155,0.62532 2.7714,2.86605 0.85984,2.24073 1.01976,4.61768 0.35535,5.28209 -0.66441,0.66441 -1.91155,-0.62532 -2.77139,-2.86605 z m 20.91788,-1.17064 c 2.33597,-1.36033 5.31335,-1.81442 6.61644,-1.00906 1.30307,0.80534 1.8317,0.0488 1.17473,-1.68127 -0.83114,-2.18872 1.53334,-3.28758 7.77312,-3.61244 4.93218,-0.25683 11.28608,-1.04883 14.11973,-1.76004 2.83561,-0.71167 7.22884,0.37292 9.77085,2.41225 4.39683,3.52729 4.35755,3.57876 -0.81737,1.07098 -3.78635,-1.83486 -6.85431,-1.87531 -10.10934,-0.13337 -2.57028,1.37567 -7.46276,2.50114 -10.87218,2.50114 -3.40942,0 -6.19893,1.08721 -6.19893,2.41604 0,1.32882 -3.53346,2.38298 -7.85213,2.34256 -6.52671,-0.0611 -7.13522,-0.49096 -3.60492,-2.54679 z m 31.99339,0.20415 c -3.93914,-1.6927 -4.07709,-2.1078 -0.74661,-2.24621 2.24702,-0.0935 4.75743,0.91739 5.57869,2.24621 1.71698,2.77816 1.63302,2.77816 -4.83208,0 z m 38.65664,0 c -0.82126,-1.32882 -0.34182,-2.41604 1.06542,-2.41604 1.40725,0 2.55864,1.08722 2.55864,2.41604 0,1.32883 -0.47944,2.41604 -1.06543,2.41604 -0.58598,0 -1.73737,-1.08721 -2.55863,-2.41604 z m -13.82734,-4.22807 c -2.03723,-2.32543 -3.28965,-6.74051 -2.7832,-9.81124 0.54571,-3.30858 -0.0664,-4.97301 -1.50246,-4.08548 -1.33284,0.82372 -2.42334,0.34632 -2.42334,-1.06093 0,-1.40725 1.35902,-2.57528 3.02005,-2.59563 2.01336,-0.0246 1.81203,-0.81768 -0.60401,-2.37905 -3.22138,-2.0818 -3.22138,-2.35025 0,-2.41604 2.96909,-0.0606 3.02884,-0.45109 0.33063,-2.16056 -2.78054,-1.76165 -2.78054,-2.29057 0,-3.39634 2.31554,-0.92085 2.05168,-1.36637 -0.88862,-1.50048 -2.59482,-0.11839 -4.65798,2.10166 -5.43609,5.84936 -0.68973,3.32206 -1.81836,8.75815 -2.50809,12.0802 -0.68973,3.32206 -2.3588,6.0401 -3.70908,6.0401 -1.57499,0 -1.65747,-1.51555 -0.23,-4.22807 1.22372,-2.32543 2.97078,-12.3822 3.8824,-22.34837 1.99911,-21.85508 3.20517,-26.57644 6.78893,-26.57644 2.02244,0 2.02921,0.70721 0.0261,2.71045 -3.37035,3.37033 -1.31464,9.36975 3.21053,9.36975 2.63001,0 3.36557,4.80183 3.36557,21.97055 0,19.89723 0.45344,22.08913 4.8049,23.22706 2.64271,0.69109 4.20937,2.22013 3.48149,3.39787 -2.00106,3.23779 -4.72517,2.59369 -8.8255,-2.08671 z m -2.48093,-38.05256 c 0,-3.51423 -1.38922,-6.0401 -3.32206,-6.0401 -1.93283,0 -3.32205,2.52587 -3.32205,6.0401 0,3.51424 1.38922,6.0401 3.32205,6.0401 1.93284,0 3.32206,-2.52586 3.32206,-6.0401 z m -42.88471,32.61655 c 0,-1.32883 1.08722,-2.41604 2.41604,-2.41604 1.32882,0 2.41604,1.08721 2.41604,2.41604 0,1.32882 -1.08722,2.41604 -2.41604,2.41604 -1.32882,0 -2.41604,-1.08722 -2.41604,-2.41604 z m -15.80361,-2.57678 c -0.87588,-1.41723 -1.07436,-3.09495 -0.44105,-3.72827 0.6333,-0.63331 1.79527,0.52624 2.58215,2.57678 1.63368,4.25733 0.24136,5.00618 -2.1411,1.15149 z m -41.544116,-6.40505 c 3.672526,-0.55535 9.108616,-0.54049 12.080196,0.0329 2.97159,0.57347 -0.0331,1.02783 -6.67733,1.00971 -6.644104,-0.0193 -9.075389,-0.48736 -5.402866,-1.04269 z M 64.399747,218.34465 c 0,-3.48634 -2.265714,-11.60558 -5.034906,-18.04275 -4.024785,-9.3559 -4.487094,-12.72753 -2.304298,-16.80609 1.50181,-2.80618 2.072527,-6.1669 1.268251,-7.46826 -0.804299,-1.30136 -0.437762,-2.3661 0.814496,-2.3661 3.116232,0 5.331209,-9.33279 2.613599,-11.01236 -1.204082,-0.74416 -2.189222,-2.44024 -2.189222,-3.76906 0,-1.32882 1.271973,-1.62991 2.826622,-0.66909 1.900578,1.17463 2.321186,0.42982 1.283835,-2.27345 -0.849649,-2.21419 -0.375259,-4.0204 1.05593,-4.0204 1.547474,0 1.873229,-1.71034 0.805291,-4.22807 -0.986397,-2.32544 -1.668034,-6.5592 -1.514761,-9.40836 0.153177,-2.84916 -1.265811,-6.46211 -3.153512,-8.02878 -1.887724,-1.56666 -2.801929,-4.49098 -2.031599,-6.49847 0.953224,-2.48404 1.935634,-2.78437 3.075401,-0.94019 0.921115,1.4904 1.695964,-3.03912 1.721888,-10.06559 0.02585,-7.02647 0.480018,-15.686928 1.009083,-19.245448 0.899806,-6.052308 1.241265,-6.217379 5.288276,-2.556644 5.456627,4.935784 5.532031,28.902412 0.07659,24.374892 -3.33962,-2.77166 -4.534521,-8.00509 -1.38299,-6.05734 0.996617,0.61594 1.81203,-2.58155 1.81203,-7.10553 0,-11.205639 -2.835247,-10.380448 -4.826329,1.40469 -1.203986,7.12636 -0.657743,10.59938 2.101012,13.35814 4.336091,4.33608 2.692652,10.8363 -2.739717,10.8363 -3.223698,0 -3.163466,0.63707 0.436337,4.61482 3.122297,3.4501 4.317415,9.62064 4.735293,24.44872 0.307393,10.90864 -0.126117,17.88101 -0.963396,15.49416 -1.436867,-4.09623 -1.613286,-4.10259 -3.144137,-0.11329 -0.892002,2.32454 -0.53943,6.24893 0.783497,8.72086 4.481778,8.37426 7.130797,16.89989 5.251021,16.89989 -1.028991,0 -3.285959,-3.91328 -5.015457,-8.69617 -5.032708,-13.91766 -7.96793,-6.29778 -3.859769,10.01994 5.671799,22.52855 5.703618,22.75541 3.390767,24.18484 -1.203985,0.74414 -2.189125,-1.49947 -2.189126,-4.98581 z m 35.787583,1.98716 c 1.7441,-0.69792 3.82793,-0.61209 4.63076,0.19075 0.80282,0.80283 -0.62416,1.37386 -3.17106,1.26895 -2.814556,-0.11597 -3.387039,-0.68843 -1.4597,-1.45969 z m 4.6272,-7.34142 c 4.28903,-0.53373 11.89956,-0.5425 16.91228,-0.0196 5.01271,0.5231 1.50351,0.95979 -7.79825,0.97051 -9.30175,0.0106 -13.40308,-0.41721 -9.11403,-0.95094 z m 94.88345,-13.81794 c 0,-1.91481 1.02143,-4.11274 2.26982,-4.8843 1.24839,-0.77155 2.10425,0.79511 1.90191,3.48148 -0.41561,5.51712 -4.17173,6.78019 -4.17173,1.40282 z M 47.574348,195.40581 c -0.37753,-1.99324 -0.454723,-9.60376 -0.171538,-16.91228 0.52329,-13.50458 -2.980935,-15.01986 -5.58731,-2.41604 -0.686977,3.32205 -0.73798,1.69122 -0.113312,-3.62406 0.624642,-5.31529 1.046821,-14.34858 0.938172,-20.07398 -0.108722,-5.7254 1.462574,-13.73769 3.491661,-17.80507 3.381079,-6.77754 3.324278,-7.92611 -0.679898,-13.75058 -5.944062,-8.64622 -10.746546,-21.162608 -9.525503,-24.825728 0.552138,-1.65642 2.358997,1.8283 4.015241,7.743838 1.656244,5.91553 5.186923,13.46704 7.845944,16.78113 l 4.834593,6.02563 -1.637761,-6.0401 c -1.82626,-6.73535 -1.775209,-6.17901 -1.330296,-14.49624 0.508915,-9.513458 4.233869,-1.40844 4.688833,10.20225 0.215028,5.48705 -1.239597,12.46491 -3.23242,15.50636 -3.963755,6.04945 -4.969214,29.96329 -1.541506,36.66325 3.551434,6.94181 5.568296,17.89109 3.003597,16.30601 -1.296012,-0.80098 -2.796421,2.09777 -3.334256,6.44167 -0.53781,4.3439 -1.286759,6.26717 -1.664289,4.27394 z m 52.461982,0.647 c 5.6475,-0.50866 14.88885,-0.50866 20.53634,0 5.64749,0.50866 1.02682,0.92484 -10.26817,0.92484 -11.294986,0 -15.915657,-0.41618 -10.26817,-0.92484 z m 62.81704,-6.64757 c -8.29327,-7.29939 -8.63241,-9.90985 -0.60401,-4.64944 3.79927,2.48937 6.0401,2.93899 6.0401,1.21192 0,-1.51014 -2.68395,-3.9686 -5.96433,-5.46324 -3.28041,-1.49465 -5.38553,-3.65411 -4.67804,-4.79882 0.70747,-1.1447 2.81008,-0.71392 4.67246,0.9573 9.18713,8.24407 12.25251,10.52325 17.93228,13.3331 4.36805,2.16092 4.75344,2.76728 1.32585,2.08614 -2.65764,-0.52814 -6.73471,-1.74354 -9.06015,-2.70087 -2.42244,-0.99728 -4.22807,-0.6741 -4.22807,0.75675 0,1.37356 1.90263,2.99459 4.22807,3.60229 2.96059,0.77368 3.14165,1.16604 0.60401,1.30882 -1.99323,0.11215 -6.61391,-2.42762 -10.26817,-5.64395 z m 44.69601,1.97848 c 0.32687,-4.33913 1.07111,-4.49704 8.75119,-1.85676 5.15182,1.77111 11.03202,2.12911 15.224,0.92687 3.75653,-1.07736 6.83005,-1.08342 6.83005,-0.0135 0,3.17229 -14.03425,5.02148 -20.23062,2.66563 -3.71422,-1.41215 -6.64754,-1.26415 -8.33207,0.42038 -1.85569,1.85569 -2.49754,1.24243 -2.24255,-2.14267 z m -58.58824,-2.01801 c -1.65424,-1.99324 -5.77383,-3.62406 -9.15464,-3.62406 -7.57842,0 -5.1805,-2.97407 3.11067,-3.85805 3.38751,-0.36117 6.06023,0.61055 6.08096,2.21084 0.0217,1.68464 0.9972,1.36943 2.37905,-0.76883 1.82505,-2.82405 2.35023,-2.15738 2.37905,3.02005 0.0425,7.62343 -0.62549,8.04411 -4.79509,3.02005 z m -32.01253,-0.39208 c 1.66103,-0.67024 4.37907,-0.67024 6.0401,0 1.66103,0.67024 0.30201,1.21861 -3.02005,1.21861 -3.32205,0 -4.68108,-0.54837 -3.02005,-1.21861 z m 82.29636,-0.0503 c 1.74409,-0.69792 3.82793,-0.61209 4.63075,0.19075 0.80283,0.80283 -0.62416,1.37386 -3.17105,1.26895 -2.81457,-0.11592 -3.38705,-0.68843 -1.4597,-1.45969 z m 43.25067,-3.21596 c 0.70087,-2.68019 2.12892,-5.40124 3.17342,-6.04677 1.0445,-0.64554 1.32563,1.01917 0.62474,3.69936 -0.70087,2.68019 -2.12892,5.40123 -3.17342,6.04677 -1.04451,0.64554 -1.32564,-1.01918 -0.62474,-3.69936 z m -64.54202,-2.59761 c -4.01186,-3.2815 -4.41751,-4.10193 -1.20802,-2.44322 7.88057,4.07278 12.24949,7.41836 9.66416,7.40046 -1.32882,-0.009 -5.13409,-2.23996 -8.45614,-4.95724 z m 36.2406,2.7745 c 0,-2.87886 3.36554,-4.96968 10.08153,-6.26306 2.89717,-0.55795 6.20825,-2.39894 7.35793,-4.0911 1.47354,-2.16882 1.88241,-1.72481 1.3856,1.50479 -0.38763,2.51978 0.8056,5.10707 2.6516,5.74952 2.04612,0.71211 2.69782,0.10259 1.66944,-1.56138 -0.92781,-1.50121 -0.53554,-2.72947 0.8717,-2.72947 3.40394,0 3.24378,3.18051 -0.34061,6.76491 -3.40966,3.40966 -23.67719,3.94533 -23.67719,0.62579 z m 16.91228,-2.0409 c 0,-1.04408 -2.17444,-1.89832 -4.83208,-1.89832 -2.65765,0 -4.83208,0.85424 -4.83208,1.89832 0,1.04407 2.17443,1.89832 4.83208,1.89832 2.65764,0 4.83208,-0.85425 4.83208,-1.89832 z m -133.486204,0.15057 c 4.318664,-0.53594 11.385584,-0.53594 15.704254,0 4.31867,0.53594 0.78521,0.97444 -7.85213,0.97444 -8.637337,0 -12.170795,-0.4385 -7.852124,-0.97444 z M 200.906,180.90957 c 0.82126,-1.32883 2.5804,-2.41604 3.90922,-2.41604 1.32883,0 1.74412,1.08721 0.92286,2.41604 -0.82126,1.32882 -2.5804,2.41604 -3.90923,2.41604 -1.32882,0 -1.74411,-1.08722 -0.92285,-2.41604 z m -106.863787,-1.6743 c 2.350735,-0.61257 5.612391,-0.57228 7.248117,0.0895 1.63573,0.66181 -0.28758,1.16301 -4.274044,1.11377 -3.986466,-0.0492 -5.324807,-0.59072 -2.974073,-1.20329 z m 54.045217,-4.3658 c -0.76487,-1.99324 -0.33757,-3.62406 0.94955,-3.62406 1.2871,0 2.3402,1.63082 2.3402,3.62406 0,1.99323 -0.42728,3.62406 -0.94953,3.62406 -0.52225,0 -1.57533,-1.63083 -2.34022,-3.62406 z m 67.64912,0 c 0.76489,-1.99324 2.63338,-3.64071 4.15225,-3.66106 1.51887,-0.0203 1.13073,-1.09092 -0.8625,-2.37904 -2.82404,-1.82504 -2.15738,-2.35022 3.02005,-2.37905 7.66955,-0.0427 8.97235,4.63861 1.81203,6.51108 -2.65765,0.69499 -4.83208,2.22403 -4.83208,3.39787 0,1.17384 -1.05311,2.13426 -2.3402,2.13426 -1.28712,0 -1.71442,-1.63083 -0.94955,-3.62406 z m -50.73684,-2.41604 c 0.76489,-1.99324 2.4947,-3.62406 3.84406,-3.62406 1.41413,0 1.17932,1.53516 -0.55431,3.62406 -1.65424,1.99323 -3.38408,3.62406 -3.84406,3.62406 -0.45999,0 -0.21068,-1.63083 0.55431,-3.62406 z m 73.83812,0.72481 c -1.59459,-1.59459 -2.89925,-4.31263 -2.89925,-6.0401 0,-1.72747 -1.15139,-3.14085 -2.55864,-3.14085 -1.40724,0 -1.77052,1.27517 -0.80729,2.83372 0.96325,1.55854 -0.6872,1.1257 -3.66762,-0.96187 -4.24255,-2.9716 -7.26349,-3.28629 -13.9155,-1.44959 -4.6731,1.29031 -9.11939,1.72315 -9.88069,0.96187 -0.76127,-0.76127 0.47555,-1.38413 2.74852,-1.38413 2.27296,0 3.95616,-1.35903 3.74046,-3.02005 -0.78106,-6.01492 0.22711,-9.3164 2.42945,-7.95531 1.23701,0.76451 2.78946,0.51571 3.44989,-0.55289 0.66042,-1.0686 -1.55419,-2.17092 -4.92138,-2.4496 -4.5559,-0.37705 -5.76697,0.41897 -4.73372,3.11152 0.96037,2.50269 -0.16912,3.61821 -3.66366,3.61821 -4.19171,0 -4.54554,-0.61036 -2.0776,-3.58402 3.19975,-3.85547 0.75402,-5.31833 -20.50312,-12.26355 -7.62215,-2.49033 -8.38789,-3.18851 -3.62406,-3.30425 3.32205,-0.0807 9.15423,1.47739 12.96039,3.46244 3.80615,1.98505 8.69863,3.53559 10.87218,3.44566 2.85346,-0.11807 2.44092,-0.89223 -1.4842,-2.78525 -2.98985,-1.44195 -5.43609,-4.02225 -5.43609,-5.73399 0,-1.71175 -1.25521,-3.88802 -2.78934,-4.83618 -1.84414,-1.13974 -2.12817,-0.65409 -0.83818,1.43316 1.53327,2.48087 -0.23145,2.86433 -8.23884,1.7903 -7.50934,-1.00721 -10.53478,-0.46836 -11.50052,2.04831 -0.72077,1.8783 -3.64041,3.32925 -6.4881,3.22435 -3.59335,-0.13238 -4.06871,-0.61702 -1.55354,-1.58391 1.99323,-0.76624 6.93215,-3.89921 10.97539,-6.96215 5.05849,-3.83206 9.13244,-5.10322 13.06201,-4.07561 3.98325,1.04164 5.18786,0.64742 3.98228,-1.30325 -2.45549,-3.97304 -13.20042,-3.46478 -17.49266,0.82744 -1.99323,1.99323 -4.9054,3.59988 -6.47153,3.57033 -1.5661,-0.0295 -0.1295,-2.1798 3.19263,-4.77835 5.62514,-4.40005 11.4442,-5.95779 18.72431,-5.01243 1.66103,0.2157 3.02005,-0.82909 3.02005,-2.32175 0,-1.59856 -2.73056,-2.29244 -6.64411,-1.68837 -3.65426,0.56405 -5.28509,0.57072 -3.62406,0.0147 1.66103,-0.5559 3.02005,-2.01823 3.02005,-3.24962 0,-2.87419 5.01152,-2.81519 9.64396,0.11355 2.87016,1.81457 2.99314,2.88918 0.60401,5.27829 -3.97733,3.97741 -3.79944,6.86559 0.42288,6.86559 6.86054,0 5.44718,-12.52512 -1.97238,-17.47929 -1.87251,-1.2503 -1.80609,-1.78598 0.22469,-1.81203 1.58567,-0.0203 4.48864,2.2553 6.45102,5.057 1.96238,2.8017 4.76902,4.35171 6.23696,3.44447 1.46794,-0.90723 2.41106,-0.75329 2.09584,0.34209 -0.31524,1.09539 0.82049,4.50736 2.52382,7.58215 3.50393,6.32512 0.30891,12.52977 -6.45206,12.52977 -3.26124,0 -3.21377,-0.42136 0.34016,-3.02005 3.63821,-2.66034 3.25839,-3.02005 -3.18901,-3.02005 -5.10243,0 -6.9452,0.97451 -6.08441,3.21765 0.6791,1.76971 1.23472,3.67234 1.23472,4.22807 0,0.55573 1.63083,1.01042 3.62406,1.01042 3.26859,0 4.69705,2.86855 3.91017,7.85213 -0.15729,0.99661 3.38325,1.81203 7.86802,1.81203 7.12732,0 8.33669,0.91272 9.60376,7.24812 1.13769,5.68843 2.72428,7.24812 7.37318,7.24812 4.1675,0 6.99545,2.14871 9.53937,7.24812 3.98695,7.99203 3.93259,8.64412 -0.36267,4.34887 z M 219.0263,160.51581 c 0,-0.58598 -1.08722,-1.73737 -2.41604,-2.55862 -1.32882,-0.82126 -2.41604,-0.34182 -2.41604,1.06543 0,1.40724 1.08722,2.55863 2.41604,2.55863 1.32882,0 2.41604,-0.47945 2.41604,-1.06544 z m -33.34135,-30.82629 c -2.25497,-2.25497 -3.54354,-2.25497 -5.7985,0 -2.25496,2.25497 -1.6107,2.89925 2.89925,2.89925 4.50995,0 5.15421,-0.64428 2.89925,-2.89925 z m 81.78771,43.84319 c 3.22884,-2.04271 21.26772,-3.3829 19.00143,-1.4117 -0.55369,0.48158 -5.84266,1.49422 -11.75331,2.25031 -6.95237,0.88935 -9.51142,0.59327 -7.24812,-0.83861 z m -109.18372,-4.82854 c 3.13708,-2.58878 9.11678,-4.85494 13.28822,-5.0359 5.33186,-0.23132 6.03063,-0.63205 2.35267,-1.34929 -6.64945,-1.29673 -9.12232,-7.32492 -3.70505,-9.03192 2.25762,-0.71138 7.36643,-0.22222 11.3529,1.08702 l 7.24812,2.38045 -8.14674,-1.20922 c -7.03191,-1.04375 -7.73532,-0.71351 -5.14025,2.41336 1.65356,1.99242 5.31959,3.70841 8.14674,3.81332 3.48845,0.12945 4.00261,0.63805 1.60003,1.58274 -1.94712,0.76561 -5.48272,3.66962 -7.85689,6.45337 -3.38826,3.97282 -4.00022,4.15204 -2.8454,0.8333 1.15588,-3.32176 0.12105,-4.22807 -4.82732,-4.22807 -3.46421,0 -6.29859,0.96041 -6.29859,2.13425 0,1.17384 -2.44624,2.74833 -5.43609,3.49886 l -5.43609,1.36461 z m 106.18911,-1.52523 c 1.74407,-0.69793 3.8279,-0.61209 4.63075,0.19074 0.80283,0.80283 -0.62416,1.37386 -3.17105,1.26895 -2.81457,-0.11592 -3.38705,-0.68842 -1.4597,-1.45969 z m 1.10299,-4.85595 c 2.35074,-0.61257 5.61239,-0.57228 7.24812,0.0895 1.63573,0.66181 -0.28758,1.163 -4.27404,1.11376 -3.98647,-0.0492 -5.32481,-0.59071 -2.97408,-1.20329 z m -71.92316,-3.15778 -4.83208,-2.07642 h 4.83208 c 2.65764,0 7.00651,0.93439 9.66416,2.07642 l 4.83208,2.07641 h -4.83208 c -2.65765,0 -7.00652,-0.93439 -9.66416,-2.07641 z m -33.49025,-8.45614 c 0.76489,-1.99324 3.4488,-3.62406 5.96428,-3.62406 2.51549,0 4.57359,-1.08722 4.57359,-2.41604 0,-1.32882 1.35902,-2.39187 3.02005,-2.36232 3.92445,0.0698 15.99716,9.48607 12.25278,9.55671 -1.56613,0.0296 -4.39089,-1.48968 -6.27726,-3.37606 -2.96238,-2.96236 -4.38528,-2.7999 -10.44075,1.1921 -8.45795,5.5758 -10.94529,5.85747 -9.09269,1.02967 z m 33.49025,1.20802 c -0.82126,-1.32883 -0.40597,-2.41604 0.92285,-2.41604 1.32883,0 3.08797,1.08721 3.90923,2.41604 0.82126,1.32882 0.40597,2.41604 -0.92286,2.41604 -1.32882,0 -3.08796,-1.08722 -3.90922,-2.41604 z m 30.90948,0.9017 c 0.83289,-0.83288 -0.13868,-4.90995 -2.15878,-9.06015 l -3.67312,-7.54581 4.92376,6.0401 c 5.50307,6.75069 6.47917,12.0802 2.21252,12.0802 -1.55028,0 -2.13726,-0.68145 -1.30438,-1.51434 z m -67.74877,-5.73378 c 0.53744,-1.99324 3.61007,-3.82481 6.82804,-4.07017 4.6134,-0.35176 4.82886,-0.1649 1.01877,0.8835 -2.65764,0.73129 -5.73027,2.56286 -6.82804,4.07017 -1.3188,1.81078 -1.66444,1.51104 -1.01877,-0.8835 z m 120.54683,-1.76568 c 8.55593,-0.68189 11.51231,-1.9882 12.4285,-5.49168 1.05255,-4.02499 -0.42095,-4.71088 -11.84246,-5.51252 l -13.04459,-0.91555 13.90431,0.19859 c 13.31562,0.1902 13.93671,0.47993 14.66882,6.84272 0.76127,6.61613 0.70531,6.64228 -13.28822,6.20862 -13.34913,-0.41368 -13.49064,-0.48028 -2.82636,-1.33019 z m -68.31145,-4.87843 c -3.00526,-3.83198 -2.91981,-3.91743 0.91218,-0.91219 2.32544,1.82373 4.22807,3.72636 4.22807,4.22807 0,1.98848 -1.98403,0.70863 -5.14025,-3.31588 z m -99.35348,0.10696 c 2.98985,-0.57588 7.88233,-0.57588 10.87218,0 2.98985,0.57587 0.54361,1.04703 -5.43609,1.04703 -5.9797,0 -8.42594,-0.47116 -5.43609,-1.04703 z m 167.96075,-2.38526 c 2.35074,-0.61257 5.61239,-0.57228 7.24812,0.0895 1.63573,0.66181 -0.28758,1.16301 -4.27404,1.11377 -3.98647,-0.0492 -5.32481,-0.59072 -2.97408,-1.20329 z m -175.05787,-2.39218 c 1.7441,-0.69793 3.82793,-0.61209 4.63076,0.19074 0.80282,0.80283 -0.62416,1.37386 -3.17106,1.26896 -2.81456,-0.11593 -3.38704,-0.68843 -1.4597,-1.4597 z m 152.05952,-4.78175 c 1.66102,-0.67024 4.37907,-0.67024 6.0401,0 1.66102,0.67024 0.302,1.21862 -3.02005,1.21862 -3.32206,0 -4.68108,-0.54838 -3.02005,-1.21862 z m 17.06328,-2.46637 c 1.74407,-0.69793 3.8279,-0.61209 4.63075,0.19074 0.80283,0.80283 -0.62416,1.37386 -3.17105,1.26896 -2.81457,-0.11593 -3.38705,-0.68843 -1.4597,-1.4597 z m -157.1936,-4.92941 c 4.31867,-0.53594 11.38559,-0.53594 15.70426,0 4.31867,0.53595 0.78521,0.97445 -7.85213,0.97445 -8.63734,0 -12.1708,-0.4385 -7.85213,-0.97445 z m 146.17042,-0.0123 c 4.98308,-0.52125 13.13721,-0.52125 18.1203,0 4.98308,0.52125 0.90601,0.94772 -9.06015,0.94772 -9.96617,0 -14.04324,-0.42647 -9.06015,-0.94772 z m -160.66666,-4.84111 c 5.6475,-0.50866 14.88885,-0.50866 20.53634,0 5.64749,0.50866 1.02682,0.92484 -10.26817,0.92484 -11.294986,0 -15.915657,-0.41618 -10.26817,-0.92484 z m 149.79448,0.16893 c 1.66102,-0.67024 4.37907,-0.67024 6.0401,0 1.66102,0.67024 0.302,1.21862 -3.02005,1.21862 -3.32206,0 -4.68108,-0.54838 -3.02005,-1.21862 z m 24.1604,-2.41604 c 1.66102,-0.67024 4.37907,-0.67024 6.0401,0 1.66102,0.67024 0.302,1.21862 -3.02005,1.21862 -3.32206,0 -4.68108,-0.54838 -3.02005,-1.21862 z m -140.13032,-4.93708 c 2.98985,-0.57587 7.88233,-0.57587 10.87218,0 2.98985,0.57587 0.54361,1.04704 -5.43609,1.04704 -5.9797,0 -8.42594,-0.47117 -5.43609,-1.04704 z m 104.04072,-2.36139 c 1.74409,-0.69792 3.8279,-0.61209 4.63075,0.19075 0.80283,0.80283 -0.62416,1.37386 -3.17105,1.26895 -2.81457,-0.11592 -3.38705,-0.68843 -1.4597,-1.45969 z m -118.45597,-2.54962 c 7.02086,-0.48959 17.89304,-0.48445 24.1604,0.0113 6.26737,0.49604 0.52302,0.89662 -12.7652,0.89033 -13.28822,-0.006 -18.41605,-0.41202 -11.3952,-0.90161 z m -4.84921,-4.82023 c 5.68262,-0.51037 14.38036,-0.50319 19.32832,0.016 4.94797,0.51924 0.29855,0.93682 -10.33203,0.92805 -10.63057,-0.009 -14.67889,-0.43354 -8.99629,-0.94392 z m 163.06481,0.0979 c 2.35074,-0.61257 5.61239,-0.57229 7.24812,0.0895 1.63573,0.66181 -0.28758,1.16301 -4.27404,1.11377 -3.98647,-0.0492 -5.32481,-0.59072 -2.97408,-1.20329 z M 42.376698,96.952182 c -0.678183,-10.289017 -1.097245,-11.442608 -3.94938,-10.872181 -1.661028,0.332205 -3.02005,-0.483208 -3.02005,-1.81203 0,-1.328822 1.023048,-2.41604 2.273445,-2.41604 1.250398,0 2.945394,1.087218 3.766655,2.41604 2.942591,4.761203 6.242612,2.476748 3.587843,-2.483708 -1.442255,-2.694863 -3.654937,-4.261525 -4.917076,-3.481473 -1.262163,0.780053 -2.294827,0.331058 -2.294827,-0.997764 0,-1.328822 1.012828,-3.042002 2.250734,-3.807068 3.559214,-2.199715 9.846426,8.698319 9.659666,16.743686 -0.149311,6.431528 -0.445034,6.731218 -2.449526,2.482467 -1.953272,-4.140172 -2.149913,-3.880706 -1.373253,1.812031 0.49855,3.65426 -0.02996,6.644108 -1.174534,6.644108 -1.14455,0 -2.206424,-1.902628 -2.359697,-4.228068 z m 124.100732,2.46806 c 4.98308,-0.52125 13.13722,-0.52125 18.1203,0 4.98308,0.52125 0.90601,0.947718 -9.06015,0.947718 -9.96617,0 -14.04323,-0.426468 -9.06015,-0.947718 z m 30.3515,0.10957 c 1.74409,-0.69793 3.82793,-0.61209 4.63075,0.19074 0.80283,0.802838 -0.62416,1.373858 -3.17105,1.268958 -2.81457,-0.11592 -3.38705,-0.68843 -1.4597,-1.459688 z m 30.12239,-2.54447 c 6.35201,-0.49934 16.13697,-0.49332 21.74436,0.0133 5.60741,0.50671 0.41031,0.91526 -11.54908,0.90789 -11.9594,-0.007 -16.54727,-0.42193 -10.19528,-0.92127 z M 93.637502,90.603603 c -2.236963,-2.695382 1.038656,-5.324302 17.220438,-13.820611 10.99059,-5.770646 24.87538,-12.839133 30.85508,-15.70775 l 10.87218,-5.215668 -7.24812,-2.878431 c -3.98647,-1.583137 -11.8688,-4.114484 -17.51629,-5.62522 -5.64749,-1.510733 -10.26817,-3.537855 -10.26817,-4.504718 0,-0.966863 18.75451,4.593097 41.67669,12.355464 78.41127,26.553196 95.36996,30.95022 88.78947,23.021202 -1.65424,-1.993233 -4.32585,-3.62406 -5.93691,-3.62406 -1.61107,0 -9.36027,-2.03446 -17.22045,-4.521022 -7.8602,-2.486559 -29.51231,-9.097277 -48.11582,-14.690482 -18.60351,-5.593204 -39.57459,-12.235592 -46.60241,-14.760863 -11.22676,-4.03405 -12.94923,-4.144794 -14.18967,-0.912297 -0.79418,2.06959 -3.65982,3.37047 -6.55047,2.973614 -4.62705,-0.635249 -5.10458,0.380258 -4.79639,10.19995 0.32744,10.434345 -0.0524,11.073946 -8.79175,14.806206 l -9.133984,3.900766 -1.449841,-8.766105 C 79.8452,30.269063 87.378413,23.298459 116.939,33.493708 c 7.64601,2.637062 22.95771,7.498038 34.02603,10.802168 18.96089,5.660243 20.47417,5.778196 26.17861,2.040493 4.48613,-2.939424 6.5115,-3.22751 7.81886,-1.112149 2.14264,3.466884 10.80362,-4.998009 14.43722,-14.110367 2.17197,-5.446901 2.42302,-5.541112 2.56115,-0.961103 0.0843,2.792766 -2.99469,8.371653 -6.84201,12.397527 -5.31365,5.560212 -8.50792,7.03059 -13.28822,6.116778 -3.4612,-0.661647 -6.29306,-0.257992 -6.29306,0.89701 0,1.155003 13.15287,5.79466 29.2286,10.310347 24.34655,6.838968 29.58656,7.645015 31.37153,4.825762 1.756,-2.773457 2.1496,-2.67408 2.17992,0.550374 0.0193,2.164223 3.35397,5.308892 7.40806,6.988151 5.41618,2.243453 7.17619,4.403675 6.63631,8.145246 -1.00063,6.934298 -5.19637,6.249206 -50.90674,-8.312204 l -38.1074,-12.139417 -15.04548,8.321277 c -22.17369,12.263688 -48.446406,25.678531 -50.290951,25.678531 -0.886325,0 -2.8546,-1.497837 -4.373927,-3.328529 z M 128.52985,75.325415 c 16.46038,-8.904871 29.39183,-16.72682 28.73652,-17.382108 -1.56037,-1.560394 -61.458104,29.390979 -61.458104,31.75769 0,3.120335 2.027106,2.229764 32.721584,-14.375582 z M 95.254582,62.976619 c 1.449527,-4.348536 -3.54433,-3.434773 -5.229567,0.956897 -0.902946,2.353015 -0.362985,3.457554 1.402536,2.869047 1.578882,-0.526293 3.301059,-2.247968 3.827031,-3.825944 z m 7.194578,-23.603514 c 12.72825,-0.24567 15.4066,-2.511696 6.82512,-5.774376 -16.482681,-6.266708 -23.279461,-1.143034 -22.935731,17.28986 l 0.194491,10.427003 2.825632,-10.87218 C 92.135885,39.757413 92.36007,39.56784 102.44923,39.373105 Z m -1.1044,16.506397 c -0.85798,-2.325438 -2.726496,-5.026834 -4.152248,-6.003103 -1.742472,-1.193142 -1.602221,-1.787162 0.427784,-1.81203 1.661028,-0.02029 3.020044,-1.124215 3.020044,-2.453037 0,-2.771802 -7.155217,-3.353656 -7.42765,-0.60401 -0.09882,0.996617 -0.623918,4.182103 -1.16702,7.07886 -0.906063,4.832522 0.97091,6.425209 9.12287,7.741127 0.95489,0.154143 1.03421,-1.622369 0.17613,-3.947807 z m 155.84141,9.417849 c -10.23939,-7.505256 -18.66533,-14.521168 -18.7243,-15.590918 -0.095,-1.72044 8.48554,3.984688 32.60694,21.680412 3.9279,2.881545 6.6,5.760554 5.93802,6.397799 -0.66197,0.637242 -9.58126,-4.982039 -19.82066,-12.487293 z m -35.13982,-6.855218 c 2.32544,-0.6077 6.1307,-0.6077 8.45614,0 2.32544,0.607701 0.4228,1.10491 -4.22807,1.10491 -4.65088,0 -6.55351,-0.497209 -4.22807,-1.10491 z m 50.73684,0 c 2.32543,-0.6077 6.1307,-0.6077 8.45614,0 2.32543,0.607701 0.4228,1.10491 -4.22807,1.10491 -4.65088,0 -6.55351,-0.497209 -4.22807,-1.10491 z m 29.03845,-0.0089 c 2.35074,-0.61257 5.61239,-0.572285 7.24812,0.08951 1.63573,0.661809 -0.28758,1.163004 -4.27404,1.113765 -3.98647,-0.04924 -5.32481,-0.590717 -2.97408,-1.203289 z m 14.49624,0 c 2.35074,-0.61257 5.61239,-0.572285 7.24812,0.08951 1.63573,0.661809 -0.28758,1.163004 -4.27405,1.113765 -3.98646,-0.04924 -5.3248,-0.590717 -2.97407,-1.203289 z m -96.33384,-21.3507 c -14.54966,-11.278145 -21.17765,-19.493287 -9.61451,-11.916832 4.89369,3.206469 11.64882,4.204308 28.66982,4.234965 l 22.26765,0.04011 -20.5038,1.441168 -20.50379,1.441168 8.3499,6.516453 c 4.59246,3.584048 7.72686,7.139531 6.9653,7.901074 -0.76154,0.761543 -7.7953,-3.584606 -15.63057,-9.658107 z m -49.88255,6.928702 c 1.66103,-0.670239 3.02005,-2.758842 3.02005,-4.641338 0,-1.882499 -1.35902,-3.441265 -3.02005,-3.463923 -4.4633,-0.06088 20.45642,-14.365544 25.10993,-14.413843 2.18328,-0.02271 4.59538,-1.672025 5.36027,-3.665258 0.89333,-2.32798 4.22597,-3.48578 9.31864,-3.237404 l 7.92795,0.386656 -7.85213,0.974442 c -4.41894,0.548385 -7.85213,2.374491 -7.85213,4.17654 0,1.761153 -3.69601,3.895476 -8.21338,4.742936 -4.51734,0.847462 -9.54294,3.142896 -11.168,5.100963 -1.62505,1.95807 -4.58547,3.560127 -6.5787,3.560127 -3.02535,0 -3.10191,0.629149 -0.46355,3.808198 2.61931,3.156061 2.56654,4.184069 -0.30816,6.003105 -1.9078,1.207197 -4.55593,2.125719 -5.88475,2.04116 -1.32882,-0.08456 -1.05702,-0.70212 0.60401,-1.372361 z m 19.9628,-12.826188 c -2.84687,-1.799957 -2.5051,-2.190099 1.64464,-1.87751 2.88103,0.217033 4.7058,1.256114 4.05503,2.309092 -1.44679,2.34094 -1.29661,2.352312 -5.69967,-0.431582 z m 30.77404,-16.166291 c 1.66103,-0.670239 4.37907,-0.670239 6.0401,0 1.66103,0.670241 0.302,1.218617 -3.02005,1.218617 -3.32206,0 -4.68108,-0.548376 -3.02005,-1.218617 z M 1.1297011,0.47218427 C 2.873792,-0.22573863 4.9576264,-0.13990563 5.7604523,0.66292337 6.5632782,1.4657534 5.1362926,2.0367813 2.5893999,1.9318742 -0.2251658,1.8159429 -0.79764642,1.2434471 1.1297011,0.47218427 Z"
     id="path4771"
     inkscape:connector-curvature="0" />
</svg>
